<svg id="Camada_1" data-name="Camada 1" xmlns="http://www.w3.org/2000/svg" viewBox="0 0 129.41 129.43"><defs><style>.cls-1{fill:#fff;}</style></defs><title>myaccount</title><path class="cls-1" d="M334.65,466.08l-2.15-.19a64.91,64.91,0,0,1-37.23-15.36,62.86,62.86,0,0,1-17-23,61.48,61.48,0,0,1-5-17.75c-2.29-19.25,2.94-36.31,15.47-51,9.19-10.78,21-17.38,34.77-20.59a60.63,60.63,0,0,1,18.17-1.39,64.19,64.19,0,0,1,38.13,15.67c11.19,9.6,18,21.86,21.07,36.22a60.49,60.49,0,0,1,1.12,17,64.41,64.41,0,0,1-14.84,37.07c-9.65,11.78-22.18,18.89-37,22.08A55.25,55.25,0,0,1,340.7,466c-.2,0-.39.06-.59.09Zm2.67-9.13c2.5-.19,5-.29,7.5-.6a52.33,52.33,0,0,0,17.45-5.4,55.68,55.68,0,0,0,20.1-17.16,1.1,1.1,0,0,0,.23-.88c-.36-1.76-.63-3.54-1-5.29a40.45,40.45,0,0,0-5.25-12.88,18,18,0,0,0-12.81-8.46.79.79,0,0,0-.79.26A34.18,34.18,0,0,1,335,417.46,34.44,34.44,0,0,1,312,406.53a.66.66,0,0,0-.74-.25c-.89.22-1.81.36-2.7.62a18,18,0,0,0-10.46,8.32,46.42,46.42,0,0,0-6,17.71,1.26,1.26,0,0,0,.18.78,51.67,51.67,0,0,0,8.38,9.28A55.36,55.36,0,0,0,337.32,457Zm0-46.34c15,.34,27.81-12.62,27.82-27.69a27.79,27.79,0,1,0-55.58-.06C309.57,398,322.36,410.93,337.35,410.61Z" transform="translate(-272.7 -336.65)"/><path d="M337.32,457a55.36,55.36,0,0,1-36.58-14,51.67,51.67,0,0,1-8.38-9.28,1.26,1.26,0,0,1-.18-.78,46.42,46.42,0,0,1,6-17.71,18,18,0,0,1,10.46-8.32c.89-.26,1.81-.4,2.7-.62a.66.66,0,0,1,.74.25A34.44,34.44,0,0,0,335,417.46a34.18,34.18,0,0,0,27.76-10.92.79.79,0,0,1,.79-.26,18,18,0,0,1,12.81,8.46,40.45,40.45,0,0,1,5.25,12.88c.41,1.75.68,3.53,1,5.29a1.1,1.1,0,0,1-.23.88A55.68,55.68,0,0,1,362.27,451a52.33,52.33,0,0,1-17.45,5.4C342.33,456.66,339.82,456.76,337.32,457Z" transform="translate(-272.7 -336.65)"/><path d="M337.35,410.61c-15,.32-27.78-12.63-27.76-27.75a27.79,27.79,0,1,1,55.58.06C365.16,398,352.39,411,337.35,410.61Z" transform="translate(-272.7 -336.65)"/></svg>