<svg id="Camada_1" data-name="Camada 1" xmlns="http://www.w3.org/2000/svg" viewBox="0 0 442.69 489.98"><defs><style>.cls-1{fill:#fff;}</style></defs><title>shoppingBag</title><path class="cls-1" d="M536.34,630.74H93.66c14.08-123.25,28.12-246.19,42.22-369.55H215c0-6.87,0-13.3,0-19.73-.15-23.9,7-45.46,22.43-63.6,26.61-31.34,60.83-43.46,100.75-33.92,40.58,9.7,65.64,36.45,74.62,77.26,2.19,9.94,1.56,20.5,2.15,30.79.16,2.79,0,5.61,0,8.88h79.1C508.18,384.23,522.22,507.18,536.34,630.74ZM215,281.31h-60.9q-18.9,165-37.73,329.33H513.61Q494.7,445.51,475.86,281.23H415c0,7-.11,13.81.1,20.59,0,1.18,1.23,2.56,2.24,3.44,9.39,8.09,10.38,21,2.17,29.61a20.16,20.16,0,0,1-29,0c-8.21-8.61-7.19-21.53,2.22-29.6,1-.87,2.18-2.26,2.22-3.44.21-6.78.1-13.57.1-20.52H235c0,6.43-.22,12.58.13,18.69a9.28,9.28,0,0,0,2.78,5.64c6,5.64,8.45,12.33,6.51,20.31a19.63,19.63,0,0,1-17.83,15c-9.12.48-17-4.37-20.22-12.5s-.87-17,6.05-23a7,7,0,0,0,2.5-4.28C215.17,294.67,215,288.18,215,281.31Zm180.62-20.49c-.7-11.86-.15-23.36-2.24-34.35-8.73-45.75-50.88-73.75-96.3-63.26-46.66,10.78-67.53,51.92-61.36,97.61Z" transform="translate(-93.66 -140.76)"/></svg>